HIERARCHY
ROOT Hips
{
	OFFSET -0.001795 -0.223333 0.028219
	CHANNELS 6 Xposition Yposition Zposition Zrotation Yrotation Xrotation 
	JOINT LeftUpLeg
	{
		OFFSET 0.069520 -0.091406 -0.006815
		CHANNELS 3 Zrotation Yrotation Xrotation
		JOINT LeftLeg
		{
			OFFSET 0.034277 -0.375199 -0.004496
			CHANNELS 3 Zrotation Yrotation Xrotation
			JOINT LeftFoot
			{
				OFFSET -0.013596 -0.397961 -0.043693
				CHANNELS 3 Zrotation Yrotation Xrotation
				JOINT LeftToe
				{
					OFFSET 0.026358 -0.055791 0.119288
					CHANNELS 3 Zrotation Yrotation Xrotation
					End Site
					{
						OFFSET 0.000000 0.000000 0.000000
					}
				}
			}
		}
	}
	JOINT RightUpLeg
	{
		OFFSET -0.067670 -0.090522 -0.004320
		CHANNELS 3 Zrotation Yrotation Xrotation
		JOINT RightLeg
		{
			OFFSET -0.038290 -0.382569 -0.008850
			CHANNELS 3 Zrotation Yrotation Xrotation
			JOINT RightFoot
			{
				OFFSET 0.015774 -0.398415 -0.042312
				CHANNELS 3 Zrotation Yrotation Xrotation
				JOINT RightToe
				{
					OFFSET -0.025372 -0.048144 0.123348
					CHANNELS 3 Zrotation Yrotation Xrotation
					End Site
					{
						OFFSET 0.000000 0.000000 0.000000
					}
				}
			}
		}
	}
	JOINT Spine
	{
		OFFSET -0.002533 0.108963 -0.026696
		CHANNELS 3 Zrotation Yrotation Xrotation
		JOINT Spine1
		{
			OFFSET 0.005487 0.135180 0.001092
			CHANNELS 3 Zrotation Yrotation Xrotation
			JOINT Spine2
			{
				OFFSET 0.001457 0.052922 0.025425
				CHANNELS 3 Zrotation Yrotation Xrotation
				JOINT Neck
				{
					OFFSET -0.002778 0.213870 -0.042857
					CHANNELS 3 Zrotation Yrotation Xrotation
					JOINT Head
					{
						OFFSET 0.005152 0.064970 0.051349
						CHANNELS 3 Zrotation Yrotation Xrotation
						End Site
						{
							OFFSET 0.000000 0.000000 0.000000
						}
					}
				}
				JOINT LeftShoulder
				{
					OFFSET 0.078845 0.121749 -0.034090
					CHANNELS 3 Zrotation Yrotation Xrotation
					JOINT LeftArm
					{
						OFFSET 0.090977 0.030469 -0.008868
						CHANNELS 3 Zrotation Yrotation Xrotation
						JOINT LeftForeArm
						{
							OFFSET 0.259612 -0.012772 -0.027456
							CHANNELS 3 Zrotation Yrotation Xrotation
							JOINT LeftHand
							{
								OFFSET 0.249234 0.008986 -0.001171
								CHANNELS 3 Zrotation Yrotation Xrotation
								End Site
								{
									OFFSET 0.000000 0.000000 0.000000
								}
							}
						}
					}
				}
				JOINT RightShoulder
				{
					OFFSET -0.081759 0.118833 -0.038615
					CHANNELS 3 Zrotation Yrotation Xrotation
					JOINT RightArm
					{
						OFFSET -0.096012 0.032551 -0.009143
						CHANNELS 3 Zrotation Yrotation Xrotation
						JOINT RightForeArm
						{
							OFFSET -0.253742 -0.013329 -0.021401
							CHANNELS 3 Zrotation Yrotation Xrotation
							JOINT RightHand
							{
								OFFSET -0.255298 0.007772 -0.005559
								CHANNELS 3 Zrotation Yrotation Xrotation
								End Site
								{
									OFFSET 0.000000 0.000000 0.000000
								}
							}
						}
					}
				}
			}
		}
	}
}
MOTION
Frames: 9
Frame Time: 0.050000
0.000000 0.949445 0.000000 -0.924762 -0.707823 2.764881 3.264062 0.219769 4.345743 -5.341493 0.513772 -5.940313 -12.708179 -10.991677 21.335907 0.000000 0.000000 0.000000 -2.675090 0.050445 0.425541 1.698129 -0.277360 -4.149622 -2.160295 -9.428972 13.111544 0.000000 0.000000 0.000000 7.499696 0.041706 -1.562554 -5.447535 1.946647 -22.048867 -2.260549 5.131399 26.353258 9.558026 -3.109460 -26.415926 0.000000 0.000000 0.000000 -19.153911 -8.189074 2.142635 -54.865145 -4.889252 -6.428577 -6.659106 -24.222801 2.429715 0.000000 0.000000 0.000000 26.194351 -5.650135 -3.647052 59.698006 4.594615 -6.203581 5.763541 23.419859 2.460478 0.000000 0.000000 0.000000 
0.000377 0.948362 0.000318 -1.156510 -0.964754 3.215157 3.398875 0.193119 4.051482 -5.265902 0.509675 -6.189978 -12.447080 -10.930304 20.869357 0.000000 0.000000 0.000000 -2.769846 0.125250 -0.464941 2.234773 -0.297797 -3.453678 -2.135266 -9.317609 12.705534 0.000000 0.000000 0.000000 8.315546 0.134783 -2.478270 -6.124195 2.130065 -21.501636 -2.278700 5.558475 26.068932 9.951648 -3.141497 -27.253817 0.000000 0.000000 0.000000 -18.828958 -7.894688 1.923358 -54.516461 -5.048813 -6.282349 -6.902448 -24.782577 2.523726 0.000000 0.000000 0.000000 25.840782 -6.268939 -3.967079 60.939816 4.485619 -6.255620 5.824943 24.073145 2.579747 0.000000 0.000000 0.000000 
0.000675 0.948127 0.000310 -0.976871 -0.417444 2.928508 3.292159 0.195889 4.063643 -5.314115 0.509873 -5.760868 -12.737158 -11.271669 20.859563 0.000000 0.000000 0.000000 -2.821904 0.105812 -0.252275 2.031476 -0.279416 -3.142844 -2.433369 -9.762842 12.543530 0.000000 0.000000 0.000000 8.198463 0.152751 -2.608149 -6.004063 2.097136 -21.923677 -2.297706 5.045613 26.871963 8.840579 -2.635552 -26.793820 0.000000 0.000000 0.000000 -18.837146 -8.065321 2.087216 -54.482701 -5.711517 -6.083978 -6.694407 -24.161592 2.427632 0.000000 0.000000 0.000000 25.694923 -5.390854 -3.402379 60.440918 5.381743 -5.877824 5.994727 23.455910 2.516952 0.000000 0.000000 0.000000 
0.000786 0.948198 0.000338 -0.941871 -0.048005 2.707614 3.100366 0.215607 4.247048 -4.959489 0.484721 -5.722164 -12.917801 -11.484471 20.841075 0.000000 0.000000 0.000000 -2.965053 0.121367 -0.457201 2.265734 -0.282033 -2.252651 -2.649988 -10.084156 12.386472 0.000000 0.000000 0.000000 8.347366 0.174594 -2.762812 -6.201030 2.143804 -22.335953 -2.175486 5.201869 27.327672 9.105865 -2.721777 -26.877529 0.000000 0.000000 0.000000 -18.609773 -8.274370 2.109404 -54.946870 -5.943799 -6.050901 -6.119815 -24.335127 2.314940 0.000000 0.000000 0.000000 25.696235 -5.764981 -3.485499 60.336175 6.011047 -5.616225 6.805724 23.495081 2.709167 0.000000 0.000000 0.000000 
0.000805 0.948583 0.000230 -0.939100 0.780406 2.566445 2.999007 0.211545 4.221827 -4.579125 0.453312 -5.579328 -13.345975 -11.895124 20.979539 0.000000 0.000000 0.000000 -2.803602 0.102291 -0.331237 2.111925 -0.267960 -2.024543 -3.028249 -10.716888 12.557569 0.000000 0.000000 0.000000 8.031944 0.176678 -2.827250 -5.496047 2.003420 -21.553920 -2.533284 4.822096 26.411142 8.974353 -2.722235 -26.064802 0.000000 0.000000 0.000000 -19.005559 -8.236905 1.973386 -54.572579 -5.968247 -5.874928 -6.398392 -24.106108 2.325128 0.000000 0.000000 0.000000 25.539428 -5.308417 -3.158736 59.837358 6.502784 -5.247511 6.817014 23.420413 2.678436 0.000000 0.000000 0.000000 
0.000823 0.949062 0.000124 -1.044331 1.356770 2.396524 3.015363 0.198316 4.111300 -4.260126 0.430147 -5.188197 -13.622999 -12.182634 21.018150 0.000000 0.000000 0.000000 -2.702257 0.090334 -0.262576 2.232885 -0.275397 -1.706593 -3.270343 -11.130465 12.758608 0.000000 0.000000 0.000000 8.002775 0.171615 -2.781079 -5.618016 2.038994 -21.823196 -2.326360 4.580563 26.598310 9.192718 -2.851587 -26.011587 0.000000 0.000000 0.000000 -19.287213 -8.392238 2.005943 -54.222134 -6.057167 -5.803906 -6.192669 -24.491036 2.314131 0.000000 0.000000 0.000000 25.376976 -4.982714 -2.886513 59.754741 6.992063 -5.023726 6.720769 23.157119 2.621339 0.000000 0.000000 0.000000 
0.000849 0.949431 -0.000035 -1.007270 1.964308 2.160961 2.985462 0.202080 4.225550 -4.127161 0.416118 -5.071922 -13.974756 -12.478306 21.211387 0.000000 0.000000 0.000000 -2.542239 0.075546 -0.179831 1.977548 -0.244807 -1.275095 -3.566112 -11.618620 12.852414 0.000000 0.000000 0.000000 7.846212 0.177242 -2.824906 -5.541256 2.039465 -21.545046 -2.434534 4.368769 26.366011 9.555063 -3.038824 -25.978695 0.000000 0.000000 0.000000 -19.454006 -8.297007 1.874505 -53.883544 -5.836047 -5.825489 -6.477527 -24.642681 2.373748 0.000000 0.000000 0.000000 25.435271 -4.692636 -2.650068 59.560181 7.567581 -4.719651 6.501556 23.282353 2.593923 0.000000 0.000000 0.000000 
0.000979 0.949642 -0.000218 -1.107493 2.625261 2.078980 2.933627 0.191520 4.113600 -3.699534 0.384793 -4.879202 -14.283858 -12.826952 21.208381 0.000000 0.000000 0.000000 -2.338397 0.071990 -0.233091 1.912081 -0.232721 -0.905862 -3.880920 -12.136877 12.995538 0.000000 0.000000 0.000000 7.764679 0.182411 -2.905011 -5.580009 2.063466 -21.550159 -2.427164 4.267648 26.434962 10.053373 -3.275966 -26.081301 0.000000 0.000000 0.000000 -19.444749 -8.288780 1.778732 -53.439311 -5.901112 -5.746791 -6.789479 -24.769617 2.436324 0.000000 0.000000 0.000000 25.216841 -4.708533 -2.536360 59.673100 8.078529 -4.477460 6.632744 23.325320 2.638392 0.000000 0.000000 0.000000 
0.001140 0.949918 -0.000362 -1.118469 2.915872 2.043734 2.843940 0.197965 4.179885 -3.469882 0.368636 -5.007065 -14.445485 -12.944987 21.318913 0.000000 0.000000 0.000000 -2.312445 0.065242 -0.176107 1.918411 -0.234489 -0.897133 -3.999097 -12.341248 13.151199 0.000000 0.000000 0.000000 7.773646 0.195395 -3.035676 -5.773106 2.117276 -21.568141 -2.246401 4.457676 26.447743 10.221078 -3.327193 -26.025706 0.000000 0.000000 0.000000 -19.287735 -8.513499 1.802105 -53.275861 -5.989020 -5.677744 -6.838527 -24.379823 2.385127 0.000000 0.000000 0.000000 25.241744 -4.843671 -2.499162 59.472972 8.580716 -4.247922 6.565040 23.360300 2.644848 0.000000 0.000000 0.000000 
